<svg width="24" height="24" viewBox="0 0 24 24" xmlns="http://www.w3.org/2000/svg">
<path fill-rule="evenodd" clip-rule="evenodd" d="M20 5.92453V20.1509C20 20.4528 19.9395 20.8981 19.5462 21.3207C19.1528 21.7434 18.714 22 18.2979 22H5.96737C5.6648 22 5.08231 21.8566 4.5679 21.283C4.05351 20.7094 4.00052 20.3396 4.00052 20.1509V5.92453C3.98791 5.68554 4.20481 4.96603 4.56792 4.60377C4.93103 4.2415 5.47569 3.96226 5.96737 3.96226H8.08552C8.08552 3.94888 8.08537 3.93482 8.08525 3.92008C8.08323 3.68524 8.07974 3.27748 8.53939 2.71698C8.87981 2.30189 9.40933 2 9.78758 2H13.9482C14.3264 2 14.9886 2.12765 15.4612 2.71698C15.9151 3.28303 15.9151 3.81132 15.9151 3.96226H18.1088C18.6762 3.96226 19.2356 4.26414 19.5462 4.71698C19.9395 5.29058 20 5.66038 20 5.92453ZM10.2414 3.35848C9.7819 3.35848 9.40933 3.73018 9.40933 4.18869C9.40933 4.64717 9.7819 5.01887 10.2414 5.01887H13.7212C14.1808 5.01887 14.5534 4.64717 14.5534 4.18869C14.5534 3.73018 14.1808 3.35848 13.7212 3.35848H10.2414ZM14.0994 10.9434C14.0994 12.0896 13.1681 13.0189 12.0191 13.0189C10.8702 13.0189 9.93884 12.0896 9.93884 10.9434C9.93884 9.79716 10.8702 8.86793 12.0191 8.86793C13.1681 8.86793 14.0994 9.79716 14.0994 10.9434ZM8.72853 14.5283H15.3099C15.6503 14.5283 15.9788 14.8411 16.0663 15.1321C16.1798 15.5094 16.0309 15.849 15.915 16.1132C15.6503 16.717 14.3264 18.0377 12.0948 18.0377C9.90103 18.0377 8.38811 16.7924 7.97204 16.1132C7.85647 15.9245 7.7451 15.4717 7.89639 15.1321C8.04767 14.7925 8.38808 14.5283 8.72853 14.5283Z" fill="#94A3B8"/>
</svg>
