<svg width="24" height="24" viewBox="0 0 24 24" fill="none" xmlns="http://www.w3.org/2000/svg">
<path d="M19 1H5C2.79086 1 1 2.79086 1 5V19C1 21.2091 2.79086 23 5 23H19C21.2091 23 23 21.2091 23 19V5C23 2.79086 21.2091 1 19 1Z" fill="#00132D"/>
<path d="M8.424 6.904L13.224 6.6C13.3627 6.6 13.496 6.73333 13.624 7C13.624 7.40533 13.1547 7.608 12.216 7.608L9.416 7.768L9.352 7.8C9.61867 9.53867 9.752 12.84 9.752 17.704C9.69867 18.1733 9.528 18.408 9.24 18.408C8.96267 18.408 8.80267 18.1947 8.76 17.768V14.056C8.76 11.5813 8.648 9.51733 8.424 7.864C6.51467 8.04533 5.56 8.25867 5.56 8.504L5.416 8.568C5.08533 8.472 4.92 8.30133 4.92 8.056C4.92 7.46933 6.088 7.08533 8.424 6.904ZM16.9489 7.528H17.1089C17.4075 7.528 17.5782 7.704 17.6209 8.056C17.6209 8.36533 17.1995 8.52 16.3569 8.52C15.0022 9.032 14.0902 9.77867 13.6209 10.76L13.5089 11.224V11.32C13.5089 11.7893 13.8235 12.024 14.4529 12.024L16.2129 11.928C17.3969 11.928 18.1969 12.504 18.6129 13.656L18.7089 14.216C18.7089 15.3253 17.8129 16.3387 16.0209 17.256C15.4875 17.4053 15.0182 17.5067 14.6129 17.56C13.5249 17.56 12.7569 16.9467 12.3089 15.72C12.1809 15.304 12.1169 14.8827 12.1169 14.456C12.1169 14.328 12.2182 14.1947 12.4209 14.056H12.6129C12.9435 14.056 13.1089 14.4773 13.1089 15.32C13.3862 16.152 13.8235 16.568 14.4209 16.568H14.8529C15.7169 16.568 16.5702 16.0667 17.4129 15.064C17.6369 14.744 17.7489 14.3973 17.7489 14.024C17.7489 13.5013 17.3382 13.1333 16.5169 12.92H16.4529L14.3569 12.968C13.1942 12.8293 12.6129 12.3493 12.6129 11.528L12.5489 11.32C12.5489 10.2213 13.3702 9.15467 15.0129 8.12C15.7275 7.72533 16.3729 7.528 16.9489 7.528Z" fill="#C5D1EC"/>
</svg>
